<svg viewBox="0 0 880 260" xmlns="http://www.w3.org/2000/svg" font-family="-apple-system,'Segoe UI',Helvetica,Arial,sans-serif">
  <defs>
    <linearGradient id="bgGrad" x1="0" y1="0" x2="880" y2="260" gradientUnits="userSpaceOnUse">
      <stop offset="0" stop-color="#0d1117"/>
      <stop offset="1" stop-color="#1a2035"/>
    </linearGradient>
    <linearGradient id="beamGrad" x1="428" y1="130" x2="854" y2="130" gradientUnits="userSpaceOnUse">
      <stop offset="0" stop-color="#4184e4"/>
      <stop offset="1" stop-color="#3fd67a"/>
    </linearGradient>
    <radialGradient id="glowBlue" cx="0.5" cy="0.5" r="0.5">
      <stop offset="0" stop-color="#4184e4" stop-opacity="0.32"/>
      <stop offset="1" stop-color="#4184e4" stop-opacity="0"/>
    </radialGradient>
    <radialGradient id="glowGreen" cx="0.5" cy="0.5" r="0.5">
      <stop offset="0" stop-color="#2da44e" stop-opacity="0.32"/>
      <stop offset="1" stop-color="#2da44e" stop-opacity="0"/>
    </radialGradient>
    <filter id="blurSm" x="-80%" y="-80%" width="260%" height="260%">
      <feGaussianBlur stdDeviation="2"/>
    </filter>
    <filter id="blurMd" x="-80%" y="-80%" width="260%" height="260%">
      <feGaussianBlur stdDeviation="5"/>
    </filter>
  </defs>

  <rect x="0.5" y="0.5" width="879" height="259" rx="18" fill="url(#bgGrad)" stroke="#30363d" stroke-width="1"/>

  <ellipse cx="380" cy="130" rx="150" ry="105" fill="url(#glowBlue)"/>
  <ellipse cx="800" cy="130" rx="120" ry="80" fill="url(#glowGreen)"/>

  <g>
    <rect x="173.9" y="39.8" width="4.7" height="4.7" fill="#4184e4" opacity="0.55" transform="rotate(20 173.9 39.8)" rx="1"/>
    <rect x="182.3" y="204.5" width="3.5" height="3.5" fill="#6e93c9" opacity="0.27" transform="rotate(38 182.3 204.5)" rx="1"/>
    <rect x="79.2" y="131.0" width="3.2" height="3.2" fill="#8b949e" opacity="0.64" transform="rotate(18 79.2 131.0)" rx="1"/>
    <rect x="152.6" y="76.9" width="6.5" height="6.5" fill="#2da44e" opacity="0.25" transform="rotate(73 152.6 76.9)" rx="1"/>
    <rect x="211.3" y="167.6" width="5.0" height="5.0" fill="#5fa8f5" opacity="0.7" transform="rotate(14 211.3 167.6)" rx="1"/>
    <rect x="105.7" y="52.6" width="3.6" height="3.6" fill="#4184e4" opacity="0.5" transform="rotate(76 105.7 52.6)" rx="1"/>
    <rect x="211.6" y="173.6" width="6.2" height="6.2" fill="#6e93c9" opacity="0.4" transform="rotate(88 211.6 173.6)" rx="1"/>
    <rect x="154.2" y="192.6" width="6.7" height="6.7" fill="#8b949e" opacity="0.5" transform="rotate(78 154.2 192.6)" rx="1"/>
    <rect x="188.5" y="43.7" width="4.4" height="4.4" fill="#2da44e" opacity="0.3" transform="rotate(26 188.5 43.7)" rx="1"/>
    <rect x="82.4" y="54.2" width="4.7" height="4.7" fill="#5fa8f5" opacity="0.47" transform="rotate(57 82.4 54.2)" rx="1"/>
    <rect x="113.3" y="74.8" width="4.6" height="4.6" fill="#4184e4" opacity="0.55" transform="rotate(84 113.3 74.8)" rx="1"/>
    <rect x="167.1" y="67.5" width="7.4" height="7.4" fill="#6e93c9" opacity="0.42" transform="rotate(15 167.1 67.5)" rx="1"/>
    <rect x="238.6" y="150.6" width="6.3" height="6.3" fill="#8b949e" opacity="0.6" transform="rotate(62 238.6 150.6)" rx="1"/>
    <rect x="204.6" y="78.5" width="3.2" height="3.2" fill="#2da44e" opacity="0.41" transform="rotate(28 204.6 78.5)" rx="1"/>
    <rect x="77.5" y="214.2" width="8.3" height="8.3" fill="#5fa8f5" opacity="0.5" transform="rotate(28 77.5 214.2)" rx="1"/>
    <rect x="119.0" y="208.8" width="5.8" height="5.8" fill="#4184e4" opacity="0.4" transform="rotate(24 119.0 208.8)" rx="1"/>
    <rect x="156.3" y="84.9" width="6.5" height="6.5" fill="#6e93c9" opacity="0.49" transform="rotate(81 156.3 84.9)" rx="1"/>
    <rect x="79.3" y="224.5" width="6.1" height="6.1" fill="#8b949e" opacity="0.28" transform="rotate(8 79.3 224.5)" rx="1"/>
    <rect x="54.7" y="154.2" width="7.8" height="7.8" fill="#2da44e" opacity="0.29" transform="rotate(38 54.7 154.2)" rx="1"/>
    <rect x="115.9" y="221.3" width="6.2" height="6.2" fill="#5fa8f5" opacity="0.6" transform="rotate(87 115.9 221.3)" rx="1"/>
    <rect x="32.6" y="171.9" width="7.1" height="7.1" fill="#4184e4" opacity="0.41" transform="rotate(48 32.6 171.9)" rx="1"/>
    <rect x="174.2" y="56.2" width="5.6" height="5.6" fill="#6e93c9" opacity="0.6" transform="rotate(41 174.2 56.2)" rx="1"/>
    <rect x="217.1" y="85.0" width="6.0" height="6.0" fill="#8b949e" opacity="0.6" transform="rotate(16 217.1 85.0)" rx="1"/>
    <rect x="215.9" y="91.7" width="6.8" height="6.8" fill="#2da44e" opacity="0.34" transform="rotate(55 215.9 91.7)" rx="1"/>
    <rect x="201.6" y="137.5" width="7.7" height="7.7" fill="#5fa8f5" opacity="0.25" transform="rotate(48 201.6 137.5)" rx="1"/>
    <rect x="102.9" y="49.7" width="8.6" height="8.6" fill="#4184e4" opacity="0.55" transform="rotate(79 102.9 49.7)" rx="1"/>
    <rect x="99.2" y="57.0" width="8.3" height="8.3" fill="#6e93c9" opacity="0.3" transform="rotate(85 99.2 57.0)" rx="1"/>
    <rect x="139.3" y="48.2" width="7.6" height="7.6" fill="#8b949e" opacity="0.33" transform="rotate(69 139.3 48.2)" rx="1"/>
    <rect x="136.9" y="139.5" width="4.6" height="4.6" fill="#2da44e" opacity="0.5" transform="rotate(79 136.9 139.5)" rx="1"/>
    <rect x="77.7" y="137.5" width="7.4" height="7.4" fill="#5fa8f5" opacity="0.44" transform="rotate(18 77.7 137.5)" rx="1"/>
    <rect x="240.9" y="152.5" width="5.6" height="5.6" fill="#4184e4" opacity="0.32" transform="rotate(47 240.9 152.5)" rx="1"/>
    <rect x="80.6" y="99.2" width="6.5" height="6.5" fill="#6e93c9" opacity="0.38" transform="rotate(21 80.6 99.2)" rx="1"/>
    <rect x="46.0" y="154.9" width="4.4" height="4.4" fill="#8b949e" opacity="0.6" transform="rotate(81 46.0 154.9)" rx="1"/>
    <rect x="45.9" y="80.2" width="7.0" height="7.0" fill="#2da44e" opacity="0.33" transform="rotate(19 45.9 80.2)" rx="1"/>
  </g>

  <path d="M255,48 C338,48 384,106 427,129" fill="none" stroke="#5fa8f5" stroke-width="7" opacity="0.22" filter="url(#blurMd)"/>
  <path d="M255,48 C338,48 384,106 427,129" fill="none" stroke="#5fa8f5" stroke-width="1.6" opacity="0.75"/>
  <path d="M255,212 C338,212 384,154 427,131" fill="none" stroke="#5fa8f5" stroke-width="7" opacity="0.22" filter="url(#blurMd)"/>
  <path d="M255,212 C338,212 384,154 427,131" fill="none" stroke="#5fa8f5" stroke-width="1.6" opacity="0.75"/>
  <path d="M255,48 C338,48 384,106 427,129 L427,131 C384,154 338,212 255,212 Z" fill="#4184e4" opacity="0.05"/>

  <g fill="#5fa8f5">
    <circle cx="285" cy="88" r="3.4" opacity="0.65"/>
    <circle cx="300" cy="168" r="3" opacity="0.55" fill="#3fd67a"/>
    <circle cx="330" cy="66" r="2.8" opacity="0.6"/>
    <circle cx="345" cy="190" r="2.6" opacity="0.5" fill="#8b949e"/>
    <circle cx="375" cy="98" r="2.3" opacity="0.65" fill="#3fd67a"/>
    <circle cx="388" cy="160" r="2.1" opacity="0.55"/>
    <circle cx="408" cy="118" r="1.7" opacity="0.8"/>
    <circle cx="412" cy="142" r="1.7" opacity="0.75" fill="#3fd67a"/>
  </g>

  <rect x="428" y="126" width="426" height="8" rx="4" fill="url(#beamGrad)" opacity="0.2" filter="url(#blurMd)"/>
  <rect x="428" y="129" width="426" height="2" rx="1" fill="url(#beamGrad)"/>

  <g>
    <circle cx="578" cy="130" r="15" fill="none" stroke="#3fd67a" stroke-width="5" opacity="0.28" filter="url(#blurMd)"/>
    <circle cx="578" cy="130" r="12" fill="none" stroke="#3fd67a" stroke-width="2" opacity="0.9"/>
    <circle cx="578" cy="130" r="2.6" fill="#3fd67a" opacity="0.9"/>
  </g>
  <g>
    <circle cx="728" cy="130" r="15" fill="none" stroke="#3fd67a" stroke-width="5" opacity="0.28" filter="url(#blurMd)"/>
    <circle cx="728" cy="130" r="12" fill="none" stroke="#3fd67a" stroke-width="2" opacity="0.9"/>
    <circle cx="728" cy="130" r="2.6" fill="#3fd67a" opacity="0.9"/>
  </g>

  <circle cx="854" cy="130" r="9" fill="none" stroke="#3fd67a" stroke-width="6" opacity="0.3" filter="url(#blurMd)"/>
  <circle cx="854" cy="130" r="5" fill="#3fd67a"/>
  <path d="M846,123 L860,130 L846,137 Z" fill="#3fd67a" opacity="0.85"/>

  <g text-anchor="middle">
    <text x="465" y="82" font-size="14" font-weight="700" fill="#5fa8f5" opacity="0.45" filter="url(#blurSm)">0.37×</text>
    <text x="465" y="82" font-size="14" font-weight="700" fill="#8ec2ff">0.37×</text>
    <text x="613" y="70" font-size="14" font-weight="700" fill="#3fd67a" opacity="0.45" filter="url(#blurSm)">0.72×</text>
    <text x="613" y="70" font-size="14" font-weight="700" fill="#7de8a6">0.72×</text>
    <text x="465" y="186" font-size="14" font-weight="700" fill="#5fa8f5" opacity="0.45" filter="url(#blurSm)">−27%</text>
    <text x="465" y="186" font-size="14" font-weight="700" fill="#8ec2ff">−27%</text>
  </g>

  <g text-anchor="middle" font-size="10.5" font-weight="600" letter-spacing="2" fill="#7f93c2">
    <text x="141" y="218">CLASSIFY</text>
    <text x="427" y="218">ROUTE</text>
    <text x="653" y="218">GATE</text>
  </g>

  <text x="24" y="27" font-size="13.5" font-weight="500" fill="#9fb3d9">Plan like Fable. Run on anything.</text>
  <text x="24" y="246" font-size="16" font-weight="700" fill="#e6edf3" letter-spacing="0.2">fable-method-harness</text>
</svg>

